<?xml version="1.0" encoding="utf-8"?>
<!-- Generator: Adobe Illustrator 26.0.1, SVG Export Plug-In . SVG Version: 6.00 Build 0)  -->
<svg version="1.1" id="Layer_1" xmlns="http://www.w3.org/2000/svg" xmlns:xlink="http://www.w3.org/1999/xlink" x="0px" y="0px"
	 viewBox="0 0 100 100" style="enable-background:new 0 0 100 100;" xml:space="preserve">
<style type="text/css">
	.st0{fill:#FF003C;}
</style>
<g>
	<g>
		<path class="st0" d="M87.66,31.09H12.34c-4.58,0-8.29-3.71-8.29-8.29l0,0c0-4.58,3.71-8.29,8.29-8.29h75.32
			c4.58,0,8.29,3.71,8.29,8.29l0,0C95.95,27.38,92.24,31.09,87.66,31.09z"/>
	</g>
	<g>
		<path class="st0" d="M87.66,58.29H12.34c-4.58,0-8.29-3.71-8.29-8.29l0,0c0-4.58,3.71-8.29,8.29-8.29h75.32
			c4.58,0,8.29,3.71,8.29,8.29l0,0C95.95,54.58,92.24,58.29,87.66,58.29z"/>
	</g>
	<g>
		<path class="st0" d="M87.66,85.49H12.34c-4.58,0-8.29-3.71-8.29-8.29l0,0c0-4.58,3.71-8.29,8.29-8.29h75.32
			c4.58,0,8.29,3.71,8.29,8.29l0,0C95.95,81.77,92.24,85.49,87.66,85.49z"/>
	</g>
</g>
</svg>
