<svg width="192" height="23" viewBox="0 0 192 23" fill="none" xmlns="http://www.w3.org/2000/svg">
<g id="Group">
<path id="Vector" d="M21.3769 0.903934C18.0289 1.70483 15.228 3.55304 13.4555 6.09947L12.624 7.31108L13.3243 8.44054C13.6962 9.07715 14.2871 10.2271 14.5934 11.0075L15.1842 12.4245L15.4249 11.8084C15.5781 11.3977 15.5781 10.9048 15.4468 10.3914C15.228 9.48786 15.2499 5.93518 15.4906 5.58608C15.6875 5.25751 16.344 5.50393 16.344 5.89411C16.344 6.0584 16.1689 6.28429 15.972 6.40751C15.6656 6.57179 15.5781 6.87983 15.5781 8.00929C15.5781 8.76911 15.6656 9.67268 15.7532 10.0013L15.9282 10.5763L16.6066 9.63161C16.9786 9.09768 17.5913 8.44054 17.9851 8.15304C18.9698 7.45483 20.5891 5.21643 20.5453 4.64143C20.5016 4.08697 21.0486 3.77893 21.4425 4.14858C21.6176 4.31286 21.5519 4.49768 21.2237 4.82625C20.7642 5.31911 18.576 8.42001 18.1164 9.24143C17.8757 9.67268 17.9195 9.71376 18.379 9.71376C19.2324 9.71376 21.2456 8.6459 21.5519 8.00929C21.8364 7.47536 22.3178 7.27001 22.5585 7.63965C22.9086 8.15304 20.7642 9.52893 18.9917 9.93965L17.5475 10.2682L17.0442 11.6441C16.7816 12.4039 16.4972 13.595 16.4096 14.2932L16.2783 15.5459L17.2411 14.7655C17.7663 14.3548 19.2981 13.4718 20.6329 12.8557L23.0837 11.7057L23.6526 9.42626C24.4404 6.24322 24.6592 4.78518 24.6592 2.46465V0.472684L23.8495 0.493219C23.39 0.493219 22.274 0.678041 21.3769 0.903934Z" fill="#222222"/>
<path id="Vector_2" d="M3.19298 3.1839C2.20829 4.45712 0.895364 7.14729 0.501487 8.70801C0.063845 10.4125 0.041963 13.3696 0.479605 14.9509C1.52994 18.6884 5.07484 21.8098 8.31339 21.8303C8.81668 21.8303 9.84514 21.9535 10.5891 22.0973L11.9458 22.3643L11.0705 21.5839C10.1077 20.7009 8.33527 18.5035 8.16022 17.9696C8.07269 17.7232 7.61316 17.5384 6.69412 17.3741C5.88448 17.2303 4.98731 16.9018 4.44026 16.5321C3.93697 16.2035 3.36804 15.875 3.1711 15.8134C2.6897 15.6491 2.66781 15.1357 3.12734 14.9714C3.56498 14.8071 3.87133 14.9919 3.87133 15.3821C3.87133 15.8339 5.53437 16.8607 6.51906 17.0044C7.00047 17.0866 7.43811 17.1071 7.48187 17.066C7.54752 17.025 7.35058 16.3473 7.06611 15.5669C6.60659 14.2321 6.4753 14.0884 5.60001 13.6982C4.59344 13.2464 2.44899 11.3366 2.44899 10.8848C2.44899 10.7616 2.64593 10.6384 2.88663 10.6384C3.19298 10.6384 3.34616 10.8027 3.38992 11.1928C3.47745 11.8294 4.85602 13.0616 5.88448 13.3902L6.54094 13.616L6.36589 12.733C6.27836 12.2607 6.19083 10.8027 6.19083 9.5089C6.16895 8.21515 6.12518 7.00354 6.05954 6.83926C5.99389 6.65444 6.12518 6.51069 6.45341 6.46962C6.80353 6.42854 6.93482 6.51069 6.93482 6.77765C6.93482 7.00354 6.82541 7.27051 6.69412 7.39372C6.54094 7.53747 6.4753 8.42051 6.54094 9.83747C6.60659 11.85 6.67223 12.2196 7.30682 13.4518C7.70069 14.2321 8.05081 14.8482 8.11645 14.8482C8.1821 14.8482 8.51033 14.3553 8.83856 13.7598C9.25432 12.9794 9.42938 12.4044 9.4075 11.6035C9.4075 10.7205 9.47314 10.5357 9.77949 10.5357C10.239 10.5357 10.5016 11.008 10.1953 11.2955C10.0858 11.3982 9.84514 12.0348 9.67008 12.6919C9.47314 13.3696 9.07926 14.191 8.7948 14.5607L8.26963 15.2178L9.2762 16.6964L10.3047 18.1955L10.6985 17.7232C11.2675 17.066 11.7708 15.3 11.6176 14.4991C11.5082 13.9241 11.5519 13.8214 11.9239 13.8214C12.3835 13.8214 12.7336 14.3553 12.4053 14.5402C12.2959 14.6018 12.099 15.1562 11.9677 15.7723C11.8364 16.3884 11.4863 17.2098 11.1799 17.6205C10.7861 18.1955 10.6985 18.4419 10.8736 18.75C11.2018 19.3044 13.3463 21.0294 13.5213 20.8446C14.1121 20.2491 14.3747 15.4232 13.9152 13.3696C12.9305 8.87229 9.75761 5.11426 5.03108 2.85533L3.87133 2.3214L3.19298 3.1839Z" fill="#222222"/>
<path id="Vector_3" d="M94.3752 5.27827C89.6925 7.12648 88.4014 12.9792 91.9901 16.0801C93.9157 17.764 96.4978 18.4417 98.6641 17.8461C101.903 16.9631 103.894 14.4783 103.916 11.2952C103.916 6.83899 98.7298 3.55327 94.3752 5.27827ZM99.2549 6.77738C101.706 7.90684 102.931 10.7613 102.012 13.1845C101.531 14.5193 100.655 15.4024 99.2112 16.0801C97.57 16.8399 96.3227 16.881 94.791 16.2033C92.7341 15.2997 91.64 13.6158 91.6181 11.3979C91.6181 9.89881 92.0339 8.85149 92.9967 7.90684C94.7254 6.20238 97.1324 5.77113 99.2549 6.77738Z" fill="#222222"/>
<path id="Vector_4" d="M110.35 5.27838C108.752 5.91499 107.33 7.1882 106.542 8.68731C105.732 10.2275 105.711 12.5891 106.476 14.1703C107.789 16.9427 111.641 18.6677 114.638 17.8462C117.877 16.9632 119.868 14.4578 119.89 11.2953C119.89 6.8391 114.704 3.55338 110.35 5.27838ZM115.207 6.75695C117.636 7.88642 118.884 10.8025 117.986 13.1846C117.024 15.7927 113.763 17.3123 111.181 16.3882C108.949 15.5873 107.592 13.7186 107.592 11.398C107.592 9.89892 108.008 8.8516 108.971 7.90695C110.7 6.20249 113.107 5.77124 115.207 6.75695Z" fill="#222222"/>
<path id="Vector_5" d="M37.8322 5.64738L37.8979 6.32506L39.8235 6.38666L41.7273 6.44827V12.1777V17.9277H42.4931H43.259V12.1777V6.42773H45.2284H47.1978V5.70898V4.99023H42.4713H37.7666L37.8322 5.64738Z" fill="#222222"/>
<path id="Vector_6" d="M49.167 11.459V17.9277H49.9329H50.6769L50.7425 15.0938L50.8081 12.2804L54.3749 12.2188L57.9198 12.1777V15.0527V17.9277H58.6857H59.4516V11.459V4.99023H58.6857H57.9198V7.86523V10.7402H54.3093H50.6987V7.86523V4.99023H49.9329H49.167V11.459Z" fill="#222222"/>
<path id="Vector_7" d="M61.8584 11.459V17.9277H66.016H70.1736V17.209V16.4902H66.8913H63.609V14.334V12.1777H66.016H68.423V11.459V10.7402H66.016H63.609V8.58398V6.42773H66.7819H69.9548V5.70898V4.99023H65.9066H61.8584V11.459Z" fill="#222222"/>
<path id="Vector_8" d="M78.2705 11.459V17.9277H79.0364H79.8023V15.5661V13.2045H81.4215H83.0627L84.8351 15.5661C86.5857 17.9072 86.6076 17.9277 87.461 17.9277H88.3363L86.9577 16.1206C86.2137 15.1349 85.3603 14.0465 85.0977 13.6768L84.6163 13.0402L85.4478 12.6501C86.6951 12.034 87.5047 10.6581 87.5047 9.13845C87.5047 7.80363 87.1765 7.02327 86.2137 6.18131C85.1852 5.2572 84.0036 4.99023 80.9839 4.99023H78.2705V11.459ZM85.0758 7.18756C85.9511 7.98845 86.1918 9.46702 85.6229 10.4938C85.0758 11.4795 84.1568 11.8286 81.8373 11.9313L79.8023 12.0134V9.20006V6.38666L82.0999 6.46881C84.3318 6.53041 84.3975 6.55095 85.0758 7.18756Z" fill="#222222"/>
<path id="Vector_9" d="M121.641 5.64738L121.706 6.32506L123.632 6.38666L125.536 6.44827V12.1777V17.9277H126.302H127.068V12.1777V6.42773H129.037H131.006V5.70898V4.99023H126.28H121.575L121.641 5.64738Z" fill="#222222"/>
<path id="Vector_10" d="M138.884 11.459V17.9277H142.823H146.761V17.209V16.4902H143.698H140.634V10.7402V4.99023H139.759H138.884V11.459Z" fill="#222222"/>
<path id="Vector_11" d="M148.73 11.459V17.9277H152.888H157.046V17.209V16.4902H153.763H150.481V14.334V12.1777H152.888H155.295V11.459V10.7402H152.888H150.481V8.58398V6.42773H153.654H156.827V5.70898V4.99023H152.779H148.73V11.459Z" fill="#222222"/>
<path id="Vector_12" d="M158.578 5.44216C158.709 5.70912 160.066 8.58412 161.619 11.8698L164.442 17.8252H165.142H165.864L168.884 11.4797C170.569 7.96805 171.926 5.09305 171.926 5.05198C171.926 4.99037 171.554 4.99037 171.116 5.03144L170.307 5.09305L167.812 10.4734C166.412 13.4511 165.23 15.8332 165.186 15.7716C165.12 15.71 163.961 13.2868 162.604 10.3913L160.131 5.09305L159.234 5.03144C158.381 4.96984 158.359 4.99037 158.578 5.44216Z" fill="#222222"/>
<path id="Vector_13" d="M173.677 11.459V17.9277H177.725H181.773V17.209V16.4902H178.491H175.209V14.334V12.1777H177.725H180.241V11.459V10.7608L177.791 10.6992L175.318 10.6376L175.252 8.54291L175.187 6.44827L178.425 6.38666L181.664 6.32506L181.729 5.64738L181.795 4.99023H177.747H173.677V11.459Z" fill="#222222"/>
<path id="Vector_14" d="M183.961 11.459V17.9277H187.9H191.838V17.209V16.4902H188.666H185.493V10.7402V4.99023H184.727H183.961V11.459Z" fill="#222222"/>
<path id="Vector_15" d="M21.2899 13.9032C18.4671 14.6835 16.1039 17.3121 15.3599 20.5568C15.1629 21.4398 15.4036 21.4193 17.3949 20.3925C18.8829 19.5916 18.9704 19.5094 18.9704 18.8318C18.9704 18.4416 19.0798 17.9076 19.233 17.6612C19.3643 17.4148 19.5394 16.9219 19.6269 16.5934C19.7144 16.1621 19.8895 15.9773 20.1739 15.9773C20.7647 15.9773 20.8742 16.696 20.3052 16.8398C19.8238 16.9425 19.1017 18.4621 19.233 19.0371C19.3424 19.53 21.64 17.9282 24.7035 15.2175C25.0755 14.8889 25.4694 14.7041 25.6663 14.7862C26.2353 14.9916 25.907 15.4844 25.0099 15.7719C24.4409 15.9568 23.5219 16.6344 22.384 17.7023C20.7429 19.2425 20.6553 19.3657 21.2024 19.3657C22.0339 19.3657 23.325 18.7496 23.4781 18.2978C23.5438 18.0719 23.7626 17.9282 23.9595 17.9693C24.4847 18.0719 24.5504 18.7291 24.0689 18.8728C23.8501 18.9344 23.325 19.1398 22.9092 19.3246C22.4934 19.5094 21.7494 19.6532 21.2462 19.6737C20.3928 19.6943 19.4956 20.2693 16.9354 22.446C16.629 22.713 19.5612 22.2612 20.7866 21.871C23.8501 20.8443 26.1696 18.421 27.1762 15.1764C27.3731 14.5398 27.5044 13.9443 27.4388 13.8826C27.1543 13.6157 22.2965 13.6362 21.2899 13.9032Z" fill="#222222"/>
</g>
</svg>
